HIERARCHY
ROOT root
{
	OFFSET 0.000000 0.000000 0.000000
	CHANNELS 6 Xposition Yposition Zposition Zrotation Yrotation Xrotation
	JOINT lhip
	{
		OFFSET 0.058581 -0.082280 -0.017664
		CHANNELS 3 Zrotation Yrotation Xrotation
		JOINT lknee
		{
			OFFSET 0.043451 -0.386469 0.008037
			CHANNELS 3 Zrotation Yrotation Xrotation
			JOINT lankle
			{
				OFFSET -0.014790 -0.426874 -0.037428
				CHANNELS 3 Zrotation Yrotation Xrotation
				JOINT ltoe
				{
					OFFSET 0.041054 -0.060286 0.122042
					CHANNELS 3 Zrotation Yrotation Xrotation
					End Site
					{
						OFFSET 0.000000 0.000000 0.000000
					}
				}
			}
		}
	}
	JOINT rhip
	{
		OFFSET -0.060310 -0.090513 -0.013543
		CHANNELS 3 Zrotation Yrotation Xrotation
		JOINT rknee
		{
			OFFSET -0.043257 -0.383688 -0.004843
			CHANNELS 3 Zrotation Yrotation Xrotation
			JOINT rankle
			{
				OFFSET 0.019056 -0.420046 -0.034562
				CHANNELS 3 Zrotation Yrotation Xrotation
				JOINT rtoe
				{
					OFFSET -0.034840 -0.062106 0.130323
					CHANNELS 3 Zrotation Yrotation Xrotation
					End Site
					{
						OFFSET 0.000000 0.000000 0.000000
					}
				}
			}
		}
	}
	JOINT lowerback
	{
		OFFSET 0.004439 0.124404 -0.038385
		CHANNELS 3 Zrotation Yrotation Xrotation
		JOINT upperback
		{
			OFFSET 0.004488 0.137956 0.026820
			CHANNELS 3 Zrotation Yrotation Xrotation
			JOINT chest
			{
				OFFSET -0.002265 0.056032 0.002855
				CHANNELS 3 Zrotation Yrotation Xrotation
				JOINT lowerneck
				{
					OFFSET -0.013390 0.211636 -0.033468
					CHANNELS 3 Zrotation Yrotation Xrotation
					JOINT upperneck
					{
						OFFSET 0.010113 0.088937 0.050410
						CHANNELS 3 Zrotation Yrotation Xrotation
						End Site
						{
							OFFSET 0.000000 0.000000 0.000000
						}
					}
				}
				JOINT lclavicle
				{
					OFFSET 0.071702 0.114000 -0.018898
					CHANNELS 3 Zrotation Yrotation Xrotation
					JOINT lshoulder
					{
						OFFSET 0.122921 0.045205 -0.019046
						CHANNELS 3 Zrotation Yrotation Xrotation
						JOINT lelbow
						{
							OFFSET 0.255332 -0.015649 -0.022946
							CHANNELS 3 Zrotation Yrotation Xrotation
							JOINT lwrist
							{
								OFFSET 0.265709 0.012698 -0.007375
								CHANNELS 3 Zrotation Yrotation Xrotation
								End Site
								{
									OFFSET 0.000000 0.000000 0.000000
								}
							}
						}
					}
				}
				JOINT rclavicle
				{
					OFFSET -0.082954 0.112472 -0.023707
					CHANNELS 3 Zrotation Yrotation Xrotation
					JOINT rshoulder
					{
						OFFSET -0.113228 0.046853 -0.008472
						CHANNELS 3 Zrotation Yrotation Xrotation
						JOINT relbow
						{
							OFFSET -0.260127 -0.014369 -0.031269
							CHANNELS 3 Zrotation Yrotation Xrotation
							JOINT rwrist
							{
								OFFSET -0.269108 0.006794 -0.006027
								CHANNELS 3 Zrotation Yrotation Xrotation
								End Site
								{
									OFFSET 0.000000 0.000000 0.000000
								}
							}
						}
					}
				}
			}
		}
	}
}
MOTION
Frames: 16
Frame Time: 0.033333
2.323807 0.667949 0.990722 -76.328976 -1.079812 82.565803 -2.728317 -2.545941 5.171742 -3.380996 -14.743399 5.349899 1.246366 7.710496 -9.798112 0.000000 -0.000000 0.000000 -4.039824 -4.697812 2.855126 -2.298760 -4.163758 16.195667 1.893252 -11.850154 -15.592255 0.000000 -0.000000 0.000000 -0.292758 2.429331 5.551103 -1.032371 -2.191287 4.412987 1.113977 0.083385 -3.857743 -3.437170 22.411844 -5.766763 -1.608564 23.028917 -0.586123 -26.496923 -8.872676 5.460207 -56.194338 -3.810484 7.738222 6.392307 -17.323771 0.962243 -2.264585 -7.652521 -3.395353 23.660450 14.149515 10.790353 55.602555 5.517954 16.838256 -1.553264 24.086149 8.942094 2.181151 4.897380 2.990847 
2.322868 0.668520 0.990779 -76.901279 -0.966573 82.634398 -2.447847 -2.307632 5.355682 -3.422019 -14.576120 5.087553 1.159669 7.756831 -9.814473 0.000000 -0.000000 0.000000 -3.771759 -4.788995 2.706483 -2.473834 -3.901385 16.244953 1.615486 -11.546000 -15.603706 0.000000 -0.000000 0.000000 -0.188384 2.474718 5.157719 -0.955003 -2.163406 5.040774 1.103441 0.130651 -4.109624 -3.235123 22.512906 -6.033207 -1.548870 22.978932 -0.928593 -26.828415 -8.876160 5.336276 -55.942001 -3.788923 7.797270 6.421316 -17.164242 0.729325 -2.366319 -7.833038 -3.046331 23.950744 13.860147 10.711922 55.969343 5.665722 16.322843 -2.092630 24.038505 7.550967 2.333431 5.066445 2.550399 
2.322554 0.668790 0.990435 -77.482729 -1.038605 82.715579 -2.465170 -2.197687 5.448970 -3.386875 -14.358754 4.846765 1.219359 7.845996 -9.862803 0.000000 -0.000000 0.000000 -3.812477 -4.577651 2.474174 -2.475938 -3.699006 16.383530 1.613593 -11.386939 -15.604953 0.000000 -0.000000 0.000000 -0.168414 2.582910 5.029560 -0.969749 -2.027741 5.680099 1.006061 0.276143 -4.355568 -3.129235 22.726494 -6.759277 -1.632752 22.913913 -1.466030 -27.266755 -9.041923 5.079936 -55.492286 -4.004135 7.645053 6.647199 -16.990700 0.072817 -2.450339 -8.236161 -2.721200 24.464536 13.680644 10.834616 56.195871 5.613890 15.969730 -2.956223 24.061457 6.575173 2.330176 5.642732 2.784949 
2.322273 0.668611 0.989704 -78.367912 -1.195379 82.586880 -2.633544 -1.868663 5.724597 -3.340140 -14.305805 4.708879 1.135137 8.102643 -9.870451 0.000000 -0.000000 0.000000 -4.008416 -4.259303 2.256463 -2.309871 -3.364235 16.810232 1.525324 -11.174964 -15.726588 0.000000 -0.000000 0.000000 -0.035760 2.687681 5.328915 -1.221882 -1.677393 6.195249 0.645666 0.736791 -4.462242 -3.276954 22.707101 -7.725320 -1.587707 22.804372 -3.317296 -27.626028 -9.580760 4.570508 -54.530317 -4.014573 7.669590 6.638822 -17.397813 -0.591070 -2.730830 -8.243828 -2.242624 24.732709 14.005220 10.861795 56.088985 5.348012 15.683804 -3.093385 24.057125 5.785382 3.367734 5.631399 2.574882 
2.322034 0.668662 0.989372 -78.799146 -1.217790 82.427998 -2.667229 -1.797227 5.861397 -3.320859 -14.060678 4.831842 1.237165 8.264604 -10.004293 0.000000 -0.000000 0.000000 -4.092660 -4.214598 2.312016 -2.136669 -3.169225 16.904073 1.407821 -10.991184 -15.875459 0.000000 -0.000000 0.000000 0.168291 2.831333 5.593242 -1.431026 -1.492766 6.404838 0.355380 0.927432 -4.411308 -3.145065 22.628762 -8.073492 -1.495584 22.818786 -4.152258 -27.730383 -9.724574 4.195498 -53.824242 -4.224146 7.436427 6.429737 -17.754641 -1.021268 -3.376926 -8.221074 -2.314712 24.664776 13.980563 10.929806 55.846928 5.525836 15.461778 -2.438663 23.904525 5.598574 3.774432 5.854381 2.628832 
2.322298 0.669163 0.988936 -79.414505 -1.312981 82.609838 -2.646179 -1.761393 5.462143 -3.527233 -13.776343 5.159230 1.499030 8.564575 -10.016093 0.000000 -0.000000 0.000000 -4.135933 -3.954046 1.886071 -2.008373 -2.946657 17.063714 1.263535 -10.816151 -15.883958 0.000000 -0.000000 0.000000 0.282657 3.125596 5.876319 -1.695229 -1.118644 6.463293 -0.024590 1.313710 -4.698928 -2.923530 22.351684 -8.882618 -0.954623 22.657117 -4.412884 -28.433687 -10.200765 3.765365 -52.544891 -4.224907 7.749247 6.833650 -17.683778 -1.482696 -3.396910 -8.746535 -1.637618 25.326998 14.026927 10.983508 55.169345 4.688573 15.532097 -2.699339 24.267718 5.642334 4.789366 6.258937 2.451197 
2.322294 0.669207 0.989166 -79.921479 -1.364834 82.957188 -2.766211 -1.748798 5.062128 -3.408994 -13.639075 5.233982 1.572162 8.825858 -10.148358 0.000000 -0.000000 0.000000 -4.199065 -4.119997 1.323389 -1.946931 -2.798514 17.175073 1.402587 -10.706454 -15.887828 0.000000 -0.000000 0.000000 0.528220 3.515451 5.938073 -1.996805 -0.802950 6.096847 -0.530021 1.739075 -4.733747 -2.698724 21.993963 -8.786459 -0.529854 22.404398 -4.850629 -28.434306 -10.189694 2.719338 -51.877458 -4.474332 8.457194 6.891245 -17.155240 -1.598257 -3.884853 -8.939540 -0.954438 25.408381 13.575361 10.829552 55.436386 4.221040 15.547101 -2.790735 24.009879 5.190122 5.268586 6.757630 2.375524 
2.321407 0.669254 0.990053 -80.401857 -1.240902 83.332349 -2.648580 -1.633872 4.785277 -3.262866 -13.660023 5.135327 1.755250 9.062017 -10.237681 0.000000 -0.000000 0.000000 -3.945326 -4.186917 0.939107 -1.888013 -2.316641 17.031278 1.458555 -10.563439 -16.003697 0.000000 -0.000000 0.000000 0.742101 3.983125 5.786331 -2.047597 -0.454399 5.782928 -0.779854 2.127329 -5.040511 -2.595358 21.351814 -8.325472 -0.314860 22.325080 -4.667233 -28.437443 -9.729317 1.779867 -51.656116 -4.533438 9.071225 7.071324 -17.253687 -1.886338 -3.385160 -8.609122 -0.363496 25.440565 13.019032 10.515385 55.607534 3.317537 15.769956 -2.836228 23.581375 5.145363 5.465681 6.726581 2.774344 
2.322004 0.670348 0.990260 -81.153424 -1.420232 83.265327 -2.892397 -1.506389 5.108857 -3.125283 -13.476242 4.758360 1.869881 9.512343 -10.124389 0.000000 -0.000000 0.000000 -3.904134 -3.787790 0.733875 -2.061869 -2.052252 17.276975 1.447751 -10.476152 -15.954128 0.000000 -0.000000 0.000000 0.976808 4.012729 6.774005 -2.432697 0.242735 4.442321 -0.987959 2.392129 -4.831575 -2.652281 20.890535 -8.292479 -0.228540 22.551788 -3.841370 -28.241907 -8.810543 1.072576 -51.759108 -4.808974 9.052817 7.175086 -17.939686 -1.933890 -3.696420 -8.331762 -0.923147 25.050886 12.476685 10.193711 56.100665 3.390722 16.198154 -2.519305 22.915844 5.523105 5.750901 6.303799 2.623433 
2.320643 0.671725 0.990711 -81.022219 -1.304028 83.516452 -2.599229 -1.675062 4.939352 -3.199668 -13.412177 4.717139 1.866010 9.335181 -10.106394 0.000000 -0.000000 0.000000 -3.617972 -3.828968 0.762154 -2.078708 -2.100027 16.843146 1.451449 -10.528416 -15.971447 0.000000 -0.000000 0.000000 0.877285 3.850050 6.527554 -2.322488 0.213670 3.866623 -0.883107 2.323706 -4.528403 -2.794096 21.086212 -8.054064 -0.398732 22.497116 -3.227243 -28.034930 -7.960607 0.892937 -51.919144 -4.640650 8.601463 7.457356 -19.157353 -1.883693 -3.477513 -8.698505 -1.029205 25.141016 12.141563 10.157810 55.874961 3.052422 16.640338 -1.941796 22.398360 8.080548 5.582858 6.750643 5.310242 
2.318671 0.672279 0.990723 -80.117969 -1.290314 83.327440 -2.603831 -1.878190 5.266013 -2.988706 -13.780992 4.600135 1.662811 9.080070 -10.100300 0.000000 -0.000000 0.000000 -3.619356 -4.038732 1.671126 -2.142218 -2.531198 16.092916 1.402612 -10.681767 -15.714355 0.000000 -0.000000 0.000000 0.477997 3.437511 6.125157 -2.032328 -0.368824 4.465449 -0.509043 1.930876 -4.424287 -3.083164 21.538023 -7.994526 -0.847715 22.730553 -3.446277 -27.800019 -7.813785 1.169025 -52.267071 -4.538462 8.004099 7.561457 -19.753824 -2.381490 -3.261588 -8.888226 -1.520919 25.109139 12.240359 10.162148 55.543912 3.345660 16.340427 -1.820218 22.266241 8.081508 5.628447 6.929319 5.782442 
2.318237 0.672843 0.990421 -79.237191 -1.130837 83.238083 -2.336475 -2.090912 5.046388 -3.113399 -13.951444 5.124157 1.462347 8.662313 -10.321159 0.000000 -0.000000 0.000000 -3.516589 -4.244963 2.017427 -2.052057 -3.052790 15.869548 1.439985 -10.814399 -15.675536 0.000000 -0.000000 0.000000 0.145124 3.129679 5.847138 -1.673827 -1.143417 5.155763 0.036366 1.278352 -4.151201 -3.365818 22.320009 -8.179865 -1.286634 22.857939 -4.185318 -27.167954 -8.375853 2.098868 -53.065823 -4.538768 7.406456 7.756993 -20.112906 -2.962711 -3.156784 -8.616227 -2.727503 24.950611 12.731034 10.341913 55.097211 3.971510 15.615121 -2.394262 22.951249 6.460410 6.009536 6.398814 3.829076 
2.317805 0.673712 0.989520 -78.119296 -1.105581 82.739171 -2.178465 -2.251406 5.253546 -3.380515 -14.350910 5.559964 1.200247 8.081019 -10.204534 0.000000 -0.000000 0.000000 -3.378963 -4.220408 2.886062 -2.240253 -3.774602 15.618872 1.423800 -11.203045 -15.843834 0.000000 -0.000000 0.000000 -0.376568 2.535286 6.144279 -1.404027 -1.821062 5.627140 0.698479 0.667819 -3.718950 -3.770142 23.258587 -8.661179 -1.319691 22.815219 -4.932187 -26.733936 -9.881575 3.705452 -53.793156 -4.707636 6.515743 7.974671 -19.458505 -3.135383 -3.239951 -9.225796 -3.621966 24.728661 14.007214 11.131569 55.091751 4.246374 15.034365 -3.256287 23.535129 5.902767 5.665855 6.637928 2.972569 
2.317838 0.675156 0.989451 -77.714820 -1.062662 82.572775 -1.928815 -2.233547 5.250675 -3.586145 -14.341329 5.819651 1.019120 7.908737 -10.295339 0.000000 -0.000000 0.000000 -3.265574 -4.334028 3.036705 -2.309448 -4.062292 15.770976 1.426851 -11.289032 -15.901771 0.000000 -0.000000 0.000000 -0.575019 2.442980 6.420349 -1.234588 -2.234578 5.886078 1.063237 0.205262 -3.784999 -3.893568 23.607817 -8.503516 -1.317429 23.016586 -5.514669 -26.522828 -11.006503 4.582725 -54.260170 -4.626646 6.467722 7.841716 -18.160594 -2.991444 -3.327883 -8.852137 -3.537602 24.387166 14.698142 11.367017 55.456378 4.402149 14.716687 -3.531736 23.636354 5.408424 5.615391 6.561633 2.257850 
2.317877 0.675716 0.989721 -77.567296 -1.123302 82.668302 -1.960385 -2.216438 5.062428 -3.579982 -14.391457 5.983705 0.985872 7.873829 -10.256700 0.000000 -0.000000 0.000000 -3.266417 -4.269587 2.953219 -2.339012 -4.084346 15.850143 1.368778 -11.460682 -15.964357 0.000000 -0.000000 0.000000 -0.612086 2.433096 6.291650 -1.088147 -2.381002 6.119338 1.150115 0.107231 -3.853919 -4.179515 23.861587 -8.348341 -1.410048 23.066522 -5.511311 -26.609648 -11.668346 4.829660 -54.595918 -4.697314 6.790178 7.761211 -16.089313 -2.526930 -3.914296 -8.972637 -2.608948 24.341504 14.892180 11.438260 55.642373 4.262858 14.631461 -3.727604 23.534492 5.373860 5.656767 6.794141 2.364313 
2.317965 0.676047 0.989999 -77.692519 -1.125497 82.999288 -1.988913 -2.313885 4.751251 -3.455723 -14.271823 5.924412 1.065578 7.974016 -10.186511 0.000000 -0.000000 0.000000 -3.252545 -4.348626 2.578524 -2.281529 -3.895391 15.813246 1.430988 -11.443970 -15.869147 0.000000 -0.000000 0.000000 -0.241215 2.626398 6.288218 -1.226444 -2.330505 5.773423 0.911142 0.215145 -4.089931 -4.167053 23.689900 -8.209440 -1.237872 23.102435 -4.852453 -26.768202 -11.450075 4.543547 -54.745781 -4.661721 7.330946 7.798543 -14.917400 -2.055120 -4.302669 -8.279231 -2.001800 24.490123 14.499128 11.415988 55.895269 4.128694 14.830591 -3.789718 23.303292 5.175258 5.666737 6.662946 2.141145 
